<svg version="1.1" id="Layer_1" xmlns="http://www.w3.org/2000/svg" xmlns:xlink="http://www.w3.org/1999/xlink" x="0px" y="0px"
	 width="100%" viewBox="0 0 1254 1254" enable-background="new 0 0 1254 1254" xml:space="preserve">
<path fill="#FEFEFE" opacity="1.000000" stroke="none" 
	d="
M1.000002,1111.000000 
	C1.000000,791.637329 1.000000,472.274597 1.379545,152.649170 
	C3.070676,146.127579 4.225300,139.830963 5.719869,133.616089 
	C14.080464,98.850197 31.506079,69.227470 57.950680,45.346390 
	C67.654861,36.582924 78.916916,29.355898 90.113785,22.478912 
	C106.293015,12.541821 124.020721,6.262331 142.870346,3.323634 
	C144.006699,3.146475 144.960999,1.801553 146.000000,1.000001 
	C466.696045,1.000000 787.392090,1.000000 1108.325562,1.362255 
	C1109.786743,2.162463 1110.985962,2.692839 1112.238037,3.023768 
	C1122.439087,5.720021 1132.911621,7.650831 1142.802979,11.202908 
	C1162.595947,18.310709 1180.568848,28.910364 1196.243286,43.004181 
	C1212.645752,57.752628 1226.080200,74.877754 1236.265015,94.555786 
	C1244.264893,110.012329 1250.062988,126.133118 1252.872070,143.328949 
	C1253.032227,144.309021 1254.265869,145.113693 1255.000000,146.000000 
	C1255.000000,467.362701 1255.000000,788.725403 1254.619141,1110.350708 
	C1253.762085,1111.657227 1253.021973,1112.659424 1252.849243,1113.751343 
	C1250.228149,1130.325562 1244.584351,1145.893066 1236.906250,1160.715698 
	C1224.408325,1184.843140 1207.581421,1205.383667 1185.614868,1221.572021 
	C1163.720093,1237.707642 1139.506226,1248.410278 1112.637085,1253.008179 
	C1111.672729,1253.173096 1110.875244,1254.313965 1110.000000,1255.000000 
	C791.303955,1255.000000 472.607941,1255.000000 153.378723,1254.703125 
	C152.563690,1254.604126 152.281860,1254.802124 152.000015,1255.000000 
	C150.286362,1255.000000 148.572708,1255.000000 146.664490,1254.630737 
	C145.599365,1253.831787 144.766876,1253.145508 143.852676,1253.010010 
	C123.143974,1249.938354 103.985344,1242.486938 86.038765,1231.979126 
	C65.776054,1220.114868 48.750130,1204.659546 34.806351,1185.606445 
	C19.020800,1164.036621 8.145891,1140.507935 3.382672,1114.169922 
	C3.172482,1113.007690 1.820264,1112.051880 1.000002,1111.000000 
M691.656067,478.187836 
	C691.660706,454.139709 691.665344,430.091583 691.952393,405.172668 
	C692.689819,395.374756 693.051880,385.531036 694.241333,375.788330 
	C696.855225,354.378357 704.019897,335.583893 733.304443,330.133362 
	C734.463867,329.917572 735.409119,328.551147 736.454224,327.720886 
	C735.037964,327.002441 733.623901,325.661682 732.205200,325.656860 
	C699.375671,325.545319 666.545532,325.532562 633.716248,325.679199 
	C631.268799,325.690125 628.827332,327.035309 626.383057,327.760254 
	C628.599426,328.805603 630.714600,330.317505 633.047913,330.823730 
	C655.344543,335.660919 667.337463,347.030548 670.894836,369.765991 
	C673.305603,385.173492 674.442444,400.926147 674.506042,416.531158 
	C674.885437,509.521759 674.787781,602.514282 674.832031,695.506165 
	C674.832520,696.528137 674.590088,697.550293 674.350830,699.444824 
	C672.474243,697.016907 671.154602,695.328247 669.854492,693.624634 
	C633.979248,646.614075 598.347351,599.415344 562.177124,552.632874 
	C504.396484,477.899536 446.275360,403.429352 388.167114,328.950134 
	C386.805969,327.205536 383.897919,325.733093 381.700012,325.717285 
	C351.704285,325.501404 321.706573,325.564697 291.709351,325.562042 
	C290.709778,325.561981 289.577881,325.302643 288.746429,325.684326 
	C287.846802,326.097260 286.904572,327.018280 286.617767,327.920227 
	C286.466858,328.394806 287.543457,329.554993 288.302826,329.950745 
	C289.304993,330.472961 290.562866,330.476074 291.671356,330.826904 
	C319.961182,339.780640 339.300537,357.310333 343.983856,387.652283 
	C345.983124,400.604919 346.774475,413.860046 346.808899,426.981171 
	C347.037170,513.973633 347.063385,600.967590 346.765228,687.959656 
	C346.708832,704.414368 345.489716,720.926086 343.724457,737.294800 
	C342.294617,750.553406 338.529968,763.534729 326.435913,771.372681 
	C320.998505,774.896545 314.312561,776.470215 308.261871,779.087891 
	C306.691101,779.767273 305.379242,781.045288 303.948456,782.048340 
	C305.572083,782.756287 307.181091,783.501526 308.829163,784.147095 
	C309.263947,784.317383 309.819214,784.183105 310.319153,784.183289 
	C340.483185,784.194946 370.647186,784.206299 400.811218,784.215454 
	C401.811066,784.215759 402.906830,784.447388 403.786255,784.115845 
	C404.872681,783.706360 405.779327,782.819885 406.763672,782.139526 
	C405.995728,781.262756 405.309845,780.287720 404.426056,779.549744 
	C403.969452,779.168396 403.165771,779.185425 402.511688,779.060364 
	C382.939606,775.318665 371.629517,763.138184 368.610443,743.907898 
	C366.292206,729.141785 364.305481,714.138672 364.245361,699.232605 
	C363.819183,593.577148 363.927338,487.919525 363.881561,382.262573 
	C363.881256,381.556000 364.110504,380.849304 364.327942,379.590363 
	C365.936707,381.500305 367.141785,382.851898 368.260864,384.271362 
	C386.927002,407.947815 405.624329,431.599854 424.231354,455.322693 
	C462.686249,504.350464 501.334381,553.229248 539.454163,602.516541 
	C583.888916,659.968811 627.861084,717.779114 671.927368,775.515503 
	C673.305969,777.321777 674.119385,780.019287 674.153381,782.316772 
	C674.360046,796.312744 674.544739,810.320312 674.183533,824.309753 
	C673.878662,836.117859 673.474121,847.991760 671.943481,859.683350 
	C669.794067,876.101440 661.550781,887.928711 644.184021,891.530884 
	C642.974670,891.781799 642.058167,893.444153 641.005432,894.450134 
	C642.534668,895.029297 644.063354,896.113403 645.593140,896.114929 
	C705.921448,896.175110 766.250366,896.272827 826.577881,896.031189 
	C845.457886,895.955566 864.132385,893.394226 882.285278,887.991089 
	C904.488770,881.382263 924.677124,871.087891 940.888672,854.127747 
	C963.185181,830.801758 970.834534,802.428467 968.786621,770.934265 
	C967.027039,743.874512 956.248962,721.068176 935.587402,703.305176 
	C915.726624,686.230591 892.143311,677.102966 866.778442,672.064697 
	C860.403625,670.798462 853.958984,669.883484 846.099976,668.564331 
	C849.454407,667.747864 851.360474,667.232483 853.288940,666.822693 
	C866.239014,664.071289 878.413025,659.350708 890.176453,653.249878 
	C950.355896,622.039551 950.557129,537.661865 897.318054,503.098511 
	C871.390930,486.266357 842.643921,479.679321 812.360352,479.267975 
	C772.205017,478.722534 732.037598,479.065521 691.656067,478.187836 
z"/>
<path fill="#020202" opacity="1.000000" stroke="none" 
	d="
M145.531342,1.000001 
	C144.960999,1.801553 144.006699,3.146475 142.870346,3.323634 
	C124.020721,6.262331 106.293015,12.541821 90.113785,22.478912 
	C78.916916,29.355898 67.654861,36.582924 57.950680,45.346390 
	C31.506079,69.227470 14.080464,98.850197 5.719869,133.616089 
	C4.225300,139.830963 3.070676,146.127579 1.379545,152.193237 
	C1.000000,101.741150 1.000000,51.482296 1.000000,1.000000 
	C49.020664,1.000000 97.041672,1.000000 145.531342,1.000001 
z"/>
<path fill="#020202" opacity="1.000000" stroke="none" 
	d="
M1255.000000,145.531342 
	C1254.265869,145.113693 1253.032227,144.309021 1252.872070,143.328949 
	C1250.062988,126.133118 1244.264893,110.012329 1236.265015,94.555786 
	C1226.080200,74.877754 1212.645752,57.752628 1196.243286,43.004181 
	C1180.568848,28.910364 1162.595947,18.310709 1142.802979,11.202908 
	C1132.911621,7.650831 1122.439087,5.720021 1112.238037,3.023768 
	C1110.985962,2.692839 1109.786743,2.162463 1108.781494,1.362255 
	C1157.593384,1.000000 1206.186890,1.000000 1255.000000,1.000000 
	C1255.000000,49.020672 1255.000000,97.041679 1255.000000,145.531342 
z"/>
<path fill="#020202" opacity="1.000000" stroke="none" 
	d="
M1.000002,1111.468628 
	C1.820264,1112.051880 3.172482,1113.007690 3.382672,1114.169922 
	C8.145891,1140.507935 19.020800,1164.036621 34.806351,1185.606445 
	C48.750130,1204.659546 65.776054,1220.114868 86.038765,1231.979126 
	C103.985344,1242.486938 123.143974,1249.938354 143.852676,1253.010010 
	C144.766876,1253.145508 145.599365,1253.831787 146.234955,1254.630737 
	C97.739922,1255.000000 49.479843,1255.000000 1.000000,1255.000000 
	C1.000000,1207.312622 1.000000,1159.625000 1.000002,1111.468628 
z"/>
<path fill="#020202" opacity="1.000000" stroke="none" 
	d="
M1110.468628,1255.000000 
	C1110.875244,1254.313965 1111.672729,1253.173096 1112.637085,1253.008179 
	C1139.506226,1248.410278 1163.720093,1237.707642 1185.614868,1221.572021 
	C1207.581421,1205.383667 1224.408325,1184.843140 1236.906250,1160.715698 
	C1244.584351,1145.893066 1250.228149,1130.325562 1252.849243,1113.751343 
	C1253.021973,1112.659424 1253.762085,1111.657227 1254.619141,1110.806641 
	C1255.000000,1158.927246 1255.000000,1206.854492 1255.000000,1255.000000 
	C1206.979248,1255.000000 1158.958252,1255.000000 1110.468628,1255.000000 
z"/>
<path fill="#020202" opacity="1.000000" stroke="none" 
	d="
M152.250015,1255.000000 
	C152.281860,1254.802124 152.563690,1254.604126 152.922760,1254.703125 
	C153.000000,1255.000000 152.500000,1255.000000 152.250015,1255.000000 
z"/>
<path fill="#D14328" opacity="1.000000" stroke="none" 
	d="
M691.875366,479.026733 
	C732.037598,479.065521 772.205017,478.722534 812.360352,479.267975 
	C842.643921,479.679321 871.390930,486.266357 897.318054,503.098511 
	C950.557129,537.661865 950.355896,622.039551 890.176453,653.249878 
	C878.413025,659.350708 866.239014,664.071289 853.288940,666.822693 
	C851.360474,667.232483 849.454407,667.747864 846.099976,668.564331 
	C853.958984,669.883484 860.403625,670.798462 866.778442,672.064697 
	C892.143311,677.102966 915.726624,686.230591 935.587402,703.305176 
	C956.248962,721.068176 967.027039,743.874512 968.786621,770.934265 
	C970.834534,802.428467 963.185181,830.801758 940.888672,854.127747 
	C924.677124,871.087891 904.488770,881.382263 882.285278,887.991089 
	C864.132385,893.394226 845.457886,895.955566 826.577881,896.031189 
	C766.250366,896.272827 705.921448,896.175110 645.593140,896.114929 
	C644.063354,896.113403 642.534668,895.029297 641.005493,894.450195 
	C642.058167,893.444153 642.974670,891.781799 644.184021,891.530884 
	C661.550781,887.928711 669.794067,876.101440 671.943481,859.683350 
	C673.474121,847.991760 673.878662,836.117859 674.183533,824.309753 
	C674.544739,810.320312 674.360046,796.312744 674.153381,782.316772 
	C674.119385,780.019287 673.305969,777.321777 671.927368,775.515503 
	C627.861084,717.779114 583.888916,659.968811 539.454163,602.516541 
	C501.334381,553.229248 462.686249,504.350464 424.231354,455.322693 
	C405.624329,431.599854 386.927002,407.947815 368.260864,384.271362 
	C367.141785,382.851898 365.936707,381.500305 364.327942,379.590363 
	C364.110504,380.849304 363.881256,381.556000 363.881561,382.262573 
	C363.927338,487.919525 363.819183,593.577148 364.245361,699.232605 
	C364.305481,714.138672 366.292206,729.141785 368.610443,743.907898 
	C371.629517,763.138184 382.939606,775.318665 402.511688,779.060364 
	C403.165771,779.185425 403.969452,779.168396 404.426056,779.549744 
	C405.309845,780.287720 405.995728,781.262756 406.763672,782.139526 
	C405.779327,782.819885 404.872681,783.706360 403.786255,784.115845 
	C402.906830,784.447388 401.811066,784.215759 400.811218,784.215454 
	C370.647186,784.206299 340.483185,784.194946 310.319153,784.183289 
	C309.819214,784.183105 309.263947,784.317383 308.829163,784.147095 
	C307.181091,783.501526 305.572083,782.756287 303.948425,782.048340 
	C305.379242,781.045288 306.691101,779.767273 308.261871,779.087891 
	C314.312561,776.470215 320.998505,774.896545 326.435913,771.372681 
	C338.529968,763.534729 342.294617,750.553406 343.724457,737.294800 
	C345.489716,720.926086 346.708832,704.414368 346.765228,687.959656 
	C347.063385,600.967590 347.037170,513.973633 346.808899,426.981171 
	C346.774475,413.860046 345.983124,400.604919 343.983856,387.652283 
	C339.300537,357.310333 319.961182,339.780640 291.671356,330.826904 
	C290.562866,330.476074 289.304993,330.472961 288.302826,329.950745 
	C287.543457,329.554993 286.466858,328.394806 286.617767,327.920227 
	C286.904572,327.018280 287.846802,326.097260 288.746429,325.684326 
	C289.577881,325.302643 290.709778,325.561981 291.709351,325.562042 
	C321.706573,325.564697 351.704285,325.501404 381.700012,325.717285 
	C383.897919,325.733093 386.805969,327.205536 388.167114,328.950134 
	C446.275360,403.429352 504.396484,477.899536 562.177124,552.632874 
	C598.347351,599.415344 633.979248,646.614075 669.854492,693.624634 
	C671.154602,695.328247 672.474243,697.016907 674.350830,699.444824 
	C674.590088,697.550293 674.832520,696.528137 674.832031,695.506165 
	C674.787781,602.514282 674.885437,509.521759 674.506042,416.531158 
	C674.442444,400.926147 673.305603,385.173492 670.894836,369.765991 
	C667.337463,347.030548 655.344543,335.660919 633.047913,330.823730 
	C630.714600,330.317505 628.599426,328.805603 626.383057,327.760254 
	C628.827332,327.035309 631.268799,325.690125 633.716248,325.679199 
	C666.545532,325.532562 699.375671,325.545319 732.205200,325.656860 
	C733.623901,325.661682 735.037964,327.002441 736.454224,327.720886 
	C735.409119,328.551147 734.463867,329.917572 733.304443,330.133362 
	C704.019897,335.583893 696.855225,354.378357 694.241333,375.788330 
	C693.051880,385.531036 692.689819,395.374756 691.448120,405.735718 
	C690.633423,407.178162 690.053894,408.056946 690.051941,408.937073 
	C690.002136,431.134949 689.984802,453.333099 690.092529,475.530579 
	C690.098145,476.698822 691.254639,477.861481 691.875366,479.026733 
M717.737732,503.364929 
	C717.493042,504.618408 717.035461,505.871735 717.034485,507.125366 
	C716.996887,554.984375 716.988281,602.843445 717.063232,650.702393 
	C717.065491,652.121338 718.004395,653.538757 718.755310,655.854309 
	C718.755310,658.790466 718.755310,661.726562 718.755310,664.956909 
	C725.130188,664.956909 730.927795,665.061890 736.720642,664.938904 
	C763.666748,664.367004 790.775757,665.376465 817.515198,662.704407 
	C851.127930,659.345520 874.223022,640.599731 884.473450,607.606934 
	C888.787781,593.720581 889.682068,579.418945 887.997986,565.093994 
	C884.013916,531.204468 866.893555,507.161621 834.154297,495.435608 
	C821.012695,490.728790 807.286438,489.055847 793.402039,488.961395 
	C770.420227,488.804993 747.436707,488.893311 724.453918,488.878784 
	C722.700928,488.877655 720.947998,488.878662 719.092285,488.878662 
	C718.839050,494.124451 718.623596,498.586792 717.737732,503.364929 
M717.932678,882.248779 
	C718.263733,883.505005 718.594788,884.761230 719.871155,886.075073 
	C754.669067,885.748596 789.509766,886.365295 824.251221,884.792603 
	C851.285278,883.568787 875.655640,873.820496 894.463867,853.283081 
	C917.856384,827.739868 924.463013,796.997498 920.183289,763.651550 
	C915.387939,726.288269 895.657654,699.553650 860.533508,684.977722 
	C840.061462,676.482056 818.434631,674.058838 796.468872,674.017395 
	C770.652527,673.968689 744.835999,674.005737 718.228088,674.205933 
	C717.814880,675.690613 717.041626,677.174988 717.040405,678.660034 
	C716.985413,743.843872 716.987915,809.027832 717.067444,874.211670 
	C717.069397,875.794250 718.019470,877.375610 718.789001,879.706909 
	C718.704773,880.485413 718.620544,881.263855 717.932678,882.248779 
z"/>
<path fill="#CC2C0C" opacity="1.000000" stroke="none" 
	d="
M691.765747,478.607300 
	C691.254639,477.861481 690.098145,476.698822 690.092529,475.530579 
	C689.984802,453.333099 690.002136,431.134949 690.051941,408.937073 
	C690.053894,408.056946 690.633423,407.178162 691.306885,406.171082 
	C691.665344,430.091583 691.660706,454.139709 691.765747,478.607300 
z"/>
<path fill="#FEFDFD" opacity="1.000000" stroke="none" 
	d="
M719.019531,674.005615 
	C744.835999,674.005737 770.652527,673.968689 796.468872,674.017395 
	C818.434631,674.058838 840.061462,676.482056 860.533508,684.977722 
	C895.657654,699.553650 915.387939,726.288269 920.183289,763.651550 
	C924.463013,796.997498 917.856384,827.739868 894.463867,853.283081 
	C875.655640,873.820496 851.285278,883.568787 824.251221,884.792603 
	C789.509766,886.365295 754.669067,885.748596 719.360229,885.646484 
	C718.745056,884.159363 718.640686,883.100891 718.536316,882.042358 
	C718.620544,881.263855 718.704773,880.485413 718.762573,878.877197 
	C718.743347,845.119751 718.719360,812.191895 718.765991,779.264160 
	C718.815674,744.177917 718.932251,709.091797 719.019531,674.005615 
z"/>
<path fill="#FEFDFD" opacity="1.000000" stroke="none" 
	d="
M718.408142,503.049133 
	C718.623596,498.586792 718.839050,494.124451 719.092285,488.878662 
	C720.947998,488.878662 722.700928,488.877655 724.453918,488.878784 
	C747.436707,488.893311 770.420227,488.804993 793.402039,488.961395 
	C807.286438,489.055847 821.012695,490.728790 834.154297,495.435608 
	C866.893555,507.161621 884.013916,531.204468 887.997986,565.093994 
	C889.682068,579.418945 888.787781,593.720581 884.473450,607.606934 
	C874.223022,640.599731 851.127930,659.345520 817.515198,662.704407 
	C790.775757,665.376465 763.666748,664.367004 736.720642,664.938904 
	C730.927795,665.061890 725.130188,664.956909 718.755310,664.956909 
	C718.755310,661.726562 718.755310,658.790466 718.742432,654.952087 
	C718.734741,609.353699 718.751892,564.657471 718.730103,519.961304 
	C718.727356,514.323853 718.520447,508.686523 718.408142,503.049133 
z"/>
<path fill="#CB2E15" opacity="1.000000" stroke="none" 
	d="
M718.623779,674.105774 
	C718.932251,709.091797 718.815674,744.177917 718.765991,779.264160 
	C718.719360,812.191895 718.743347,845.119751 718.631775,878.502563 
	C718.019470,877.375610 717.069397,875.794250 717.067444,874.211670 
	C716.987915,809.027832 716.985413,743.843872 717.040405,678.660034 
	C717.041626,677.174988 717.814880,675.690613 718.623779,674.105774 
z"/>
<path fill="#CB2E15" opacity="1.000000" stroke="none" 
	d="
M718.072937,503.207031 
	C718.520447,508.686523 718.727356,514.323853 718.730103,519.961304 
	C718.751892,564.657471 718.734741,609.353699 718.618164,654.503418 
	C718.004395,653.538757 717.065491,652.121338 717.063232,650.702393 
	C716.988281,602.843445 716.996887,554.984375 717.034485,507.125366 
	C717.035461,505.871735 717.493042,504.618408 718.072937,503.207031 
z"/>
<path fill="#CB2E15" opacity="1.000000" stroke="none" 
	d="
M718.234497,882.145569 
	C718.640686,883.100891 718.745056,884.159363 718.887573,885.617676 
	C718.594788,884.761230 718.263733,883.505005 718.234497,882.145569 
z"/>
</svg>