<svg xmlns="http://www.w3.org/2000/svg" viewBox="0 0 64 64" role="img" aria-label="Niseem Bhattacharya">
  <defs>
    <linearGradient id="bg" x1="0%" x2="100%" y1="0%" y2="100%">
      <stop offset="0%" stop-color="#1e293b" />
      <stop offset="100%" stop-color="#e85d75" />
    </linearGradient>
  </defs>
  <rect width="64" height="64" rx="18" fill="url(#bg)" />
  <path
    d="M17 46V18h5.6l11.2 15.1V18h6V46h-5.2L23 30.5V46H17Z"
    fill="#fffaf7"
  />
  <path
    d="M45 18h-1.8v28H45c6.3 0 10.4-2.5 10.4-7.5 0-3.1-1.7-5.1-4.3-6 1.8-.9 3-2.6 3-5.1 0-4.3-3.3-6.4-9.1-6.4Zm1.1 5c2.1 0 3.2.9 3.2 2.6 0 1.7-1.1 2.7-3.2 2.7h-1.8V23h1.8Zm.4 9.8c2.4 0 3.7 1 3.7 3 0 2.1-1.3 3.2-3.7 3.2h-2.2v-6.2h2.2Z"
    fill="#fffaf7"
  />
</svg>
